<svg width="253" height="100" viewBox="0 0 253 100" fill="none" xmlns="http://www.w3.org/2000/svg">
<path d="M36 69.96C35.8133 67.64 35.68 65.3867 35.6 63.2C35.5467 61.0133 35.52 58.9467 35.52 57C35.52 53.7733 35.5867 50.88 35.72 48.32C35.8533 45.7333 35.9867 43.5067 36.12 41.64C33.8267 41.7733 31.6 41.9467 29.44 42.16C27.28 42.3733 25.28 42.6533 23.44 43L23.52 36.32C26.64 35.76 29.84 35.36 33.12 35.12C36.4 34.8533 39.68 34.72 42.96 34.72C45.3067 34.72 47.5467 34.7733 49.68 34.88C51.84 34.9867 53.9067 35.1467 55.88 35.36L55.84 42.28C53.9733 41.9867 51.9467 41.7867 49.76 41.68C47.6 41.5467 45.3867 41.48 43.12 41.48C42.9867 43.2933 42.8667 45.32 42.76 47.56C42.6533 49.7733 42.6 52.1467 42.6 54.68C42.6 56.9467 42.6533 59.3333 42.76 61.84C42.8933 64.3467 43.0533 66.9867 43.24 69.76L36 69.96ZM62.3125 69.76C62.2325 67.9467 62.1925 65.9467 62.1925 63.76C62.1925 61.6533 62.2325 59.4133 62.3125 57.04C62.3925 54.6667 62.5125 52.2667 62.6725 49.84C62.8325 47.3867 63.0458 45 63.3125 42.68C62.8858 42.7867 62.4725 42.8933 62.0725 43C61.6992 43.08 61.3525 43.1733 61.0325 43.28L58.9925 36.92C65.4458 35.4 70.8192 34.64 75.1125 34.64C83.8325 34.64 88.1925 37.96 88.1925 44.6C88.1925 47.72 87.1525 50.2 85.0725 52.04C82.9925 53.8533 79.9392 55 75.9125 55.48C78.3392 57.5333 80.7792 59.2267 83.2325 60.56C85.7125 61.8667 88.2192 62.9733 90.7525 63.88L86.3525 69.76C84.9392 69.2533 83.4592 68.5467 81.9125 67.64C80.3658 66.7333 78.8325 65.7333 77.3125 64.64C75.7925 63.5467 74.3392 62.44 72.9525 61.32C71.5925 60.2 70.3792 59.16 69.3125 58.2C69.2858 60.04 69.2592 61.9067 69.2325 63.8C69.2325 65.6667 69.2325 67.6 69.2325 69.6L68.9925 69.84C67.9792 69.84 66.8858 69.84 65.7125 69.84C64.5658 69.8667 63.5258 69.92 62.5925 70L62.3125 69.76ZM74.7525 41C74.0058 41 73.2325 41.04 72.4325 41.12C71.6325 41.1733 70.8325 41.2533 70.0325 41.36C69.9258 42.8533 69.8325 44.3333 69.7525 45.8C69.6725 47.24 69.6058 48.68 69.5525 50.12C70.7258 50.0933 71.9925 50.0267 73.3525 49.92C74.7392 49.7867 76.0458 49.5467 77.2725 49.2C78.4992 48.8267 79.4992 48.2933 80.2725 47.6C81.0725 46.9067 81.4725 45.9867 81.4725 44.84C81.4725 43.5067 80.9258 42.5333 79.8325 41.92C78.7392 41.3067 77.0458 41 74.7525 41ZM99.7572 69.84L92.9172 68.56C94.1972 63.3867 95.5305 58.7067 96.9172 54.52C98.3305 50.3333 99.7839 46.7467 101.277 43.76C102.771 40.7733 104.291 38.48 105.837 36.88C107.411 35.2533 108.984 34.44 110.557 34.44C113.731 34.44 116.651 37.3867 119.317 43.28C121.984 49.1467 124.251 57.6533 126.117 68.8L119.037 69.76C118.717 68 118.371 66.2 117.997 64.36C117.624 62.4933 117.237 60.68 116.837 58.92C116.197 58.8933 115.504 58.88 114.757 58.88C113.451 58.88 112.064 58.9067 110.597 58.96C109.157 59.0133 107.731 59.1067 106.317 59.24C104.931 59.3467 103.637 59.4667 102.437 59.6C101.931 61.3067 101.437 63.04 100.957 64.8C100.504 66.5333 100.104 68.2133 99.7572 69.84ZM107.117 46.48C106.531 47.7333 105.744 49.76 104.757 52.56C105.904 52.4267 107.117 52.3333 108.397 52.28C109.677 52.2 110.931 52.16 112.157 52.16C113.197 52.16 114.197 52.1867 115.157 52.24C114.784 50.88 114.424 49.6667 114.077 48.6C113.757 47.5333 113.464 46.6933 113.197 46.08C112.637 44.64 112.144 43.6267 111.717 43.04C111.291 42.4267 110.851 42.12 110.397 42.12C109.917 42.12 109.437 42.44 108.957 43.08C108.477 43.6933 107.864 44.8267 107.117 46.48ZM143.604 70.2C141.31 70.2 139.07 68.1867 136.884 64.16C135.097 60.8533 133.47 56.7867 132.004 51.96C130.564 47.1333 129.137 41.6267 127.724 35.44L134.964 34.48C135.71 38.0533 136.524 41.4933 137.404 44.8C138.31 48.08 139.23 51.0533 140.164 53.72C141.124 56.36 142.044 58.52 142.924 60.2C143.137 60.6267 143.337 60.9867 143.524 61.28C143.737 61.5467 143.87 61.68 143.924 61.68C144.03 61.68 144.164 61.56 144.324 61.32C144.51 61.08 144.764 60.6533 145.084 60.04C145.99 58.4133 146.964 56.2933 148.004 53.68C149.07 51.0667 150.15 48.1067 151.244 44.8C152.337 41.4933 153.364 38.0133 154.324 34.36L161.444 35.68C160.244 39.92 159.017 43.8533 157.764 47.48C156.51 51.08 155.284 54.2933 154.084 57.12C152.884 59.92 151.777 62.2667 150.764 64.16C148.604 68.1867 146.217 70.2 143.604 70.2ZM178.192 69.96C176.165 69.96 174.338 69.8133 172.712 69.52C171.112 69.2533 169.752 68.72 168.632 67.92C167.512 67.1467 166.658 66 166.072 64.48C165.485 62.96 165.192 60.9733 165.192 58.52C165.192 56.7333 165.285 54.88 165.472 52.96C165.658 51.04 165.885 49.1867 166.152 47.4C166.445 45.5867 166.725 43.9733 166.992 42.56C166.458 42.64 166.005 42.72 165.632 42.8L164.872 36.44C166.178 36.2 167.685 36 169.392 35.84C171.125 35.6533 172.952 35.4933 174.872 35.36C176.818 35.2267 178.752 35.1333 180.672 35.08C182.592 35 184.392 34.96 186.072 34.96C187.405 34.96 188.618 34.9867 189.712 35.04C190.832 35.0667 191.752 35.12 192.472 35.2L192.152 41.88C191.432 41.7467 190.458 41.6533 189.232 41.6C188.005 41.52 186.632 41.48 185.112 41.48C183.325 41.48 181.418 41.52 179.392 41.6C177.365 41.68 175.432 41.7733 173.592 41.88C173.378 43 173.192 44.1467 173.032 45.32C172.872 46.4933 172.725 47.6533 172.592 48.8C174.138 48.5867 175.832 48.4267 177.672 48.32C179.538 48.1867 181.392 48.0933 183.232 48.04C185.072 47.96 186.725 47.92 188.192 47.92C189.045 47.92 189.805 47.9333 190.472 47.96C191.138 47.96 191.685 47.9867 192.112 48.04L191.952 54.6C191.605 54.5733 191.125 54.56 190.512 54.56C189.925 54.5333 189.232 54.52 188.432 54.52C187.285 54.52 186.005 54.5467 184.592 54.6C183.178 54.6267 181.712 54.68 180.192 54.76C178.698 54.8133 177.245 54.8933 175.832 55C174.418 55.08 173.138 55.1867 171.992 55.32C171.885 56.8133 171.832 58.0133 171.832 58.92C171.832 60.2267 172.005 61.1867 172.352 61.8C172.698 62.4133 173.272 62.8133 174.072 63C174.898 63.16 175.978 63.24 177.312 63.24C179.685 63.24 182.232 63.04 184.952 62.64C187.698 62.24 190.405 61.6133 193.072 60.76L193.512 67.72C190.312 68.6 187.405 69.1867 184.792 69.48C182.205 69.8 180.005 69.96 178.192 69.96ZM210.386 69.92C207.746 69.92 205.653 69.6933 204.106 69.24C202.56 68.7867 201.413 68.1467 200.666 67.32C199.92 66.52 199.426 65.5733 199.186 64.48C198.973 63.36 198.866 62.16 198.866 60.88C198.866 58.7467 198.92 56.3067 199.026 53.56C199.16 50.8133 199.32 47.8667 199.506 44.72C199.72 41.5467 199.946 38.2667 200.186 34.88L207.466 35.6C207.2 37.6533 206.96 39.76 206.746 41.92C206.56 44.0533 206.4 46.1333 206.266 48.16C206.133 50.1867 206.026 52.0267 205.946 53.68C205.866 55.3333 205.8 56.72 205.746 57.84C205.72 58.9333 205.706 59.64 205.706 59.96C205.706 60.8933 205.813 61.6 206.026 62.08C206.24 62.5333 206.666 62.84 207.306 63C207.946 63.16 208.88 63.24 210.106 63.24C211.653 63.24 213.4 63.1467 215.346 62.96C217.293 62.7467 219.266 62.44 221.266 62.04C223.266 61.64 225.093 61.16 226.746 60.6L228.306 67.48C226.493 67.9333 224.533 68.3467 222.426 68.72C220.346 69.0933 218.266 69.3867 216.186 69.6C214.106 69.8133 212.173 69.92 210.386 69.92Z" fill="white"/>
<line x1="2.5498" y1="34" x2="2.5498" y2="100" stroke="white" stroke-width="5"/>
<line y1="-2.5" x2="44.0034" y2="-2.5" transform="matrix(0.999922 0.0124765 -0.00778161 0.99997 0 99.1538)" stroke="white" stroke-width="5"/>
<line x1="249.991" y1="67.5262" x2="249.929" y2="0.00232256" stroke="white" stroke-width="5"/>
<line y1="-2.5" x2="44.4831" y2="-2.5" transform="matrix(-0.999929 -0.0119103 0.00664093 -0.999978 252.48 0.866455)" stroke="white" stroke-width="5"/>
</svg>
